/* XPM */
static char *chromium_browser_png[] = {
/* columns rows colors chars-per-pixel */
"32 32 104 2 ",
"   c #366698",
".  c #3C6C9C",
"X  c #3F709F",
"o  c #3F70A0",
"O  c #486E96",
"+  c #416E9D",
"@  c #43729F",
"#  c #4373A2",
"$  c #4876A3",
"%  c #4C7AA6",
"&  c #4F7CA8",
"*  c #527BA5",
"=  c #527EA9",
"-  c #407CBE",
";  c #5681AC",
":  c #5983AE",
">  c #5583B2",
",  c #5C86B1",
"<  c #5E89B2",
"1  c #5C8BBB",
"2  c #6787A3",
"3  c #6187AB",
"4  c #608AB4",
"5  c #608FBE",
"6  c #6990B5",
"7  c #6592BF",
"8  c #7A97B2",
"9  c #7798B5",
"0  c #7F9BB4",
"q  c #7A9CBD",
"w  c #4C84C2",
"e  c #5287C5",
"r  c #578AC6",
"t  c #5B8CC6",
"y  c #5E8EC9",
"u  c #5F91C3",
"i  c #5E91C9",
"p  c #6695C5",
"a  c #6593CB",
"s  c #6A96CD",
"d  c #6C99CD",
"f  c #7B9FC0",
"g  c #719CCF",
"h  c #699DD1",
"j  c #739CD1",
"k  c #789FD3",
"l  c #75A2CE",
"z  c #6EA1D5",
"x  c #73A4D5",
"c  c #7BA4D5",
"v  c #7BAAD5",
"b  c #75A7D8",
"n  c #77A8D9",
"m  c #7CACDB",
"M  c #87ADCF",
"N  c #94ADC4",
"B  c #90ADC8",
"V  c #81A6D6",
"C  c #81AAD4",
"Z  c #83ACDA",
"A  c #88ADDB",
"S  c #8DB2D4",
"D  c #82B2DE",
"F  c #8DB3DD",
"G  c #90B2D2",
"H  c #91B7DB",
"J  c #9BBBDE",
"K  c #A7BED3",
"L  c #A2BFD8",
"P  c #87B5E0",
"I  c #89B7E1",
"U  c #8BB9E2",
"Y  c #94BCE1",
"T  c #9BBCE2",
"R  c #A4BFE1",
"E  c #A5C4DF",
"W  c #ACC6DD",
"Q  c #B4C9DD",
"!  c #BCCEDF",
"~  c #9DC2E4",
"^  c #A3C3E2",
"/  c #A7C9E7",
"(  c #ABC9E5",
")  c #A7C9E8",
"_  c #AACBE9",
"`  c #B5CEE6",
"'  c #BACEE5",
"]  c #B3CCE9",
"[  c #BBD1E6",
"{  c #B5D1EA",
"}  c #BCD4EA",
"|  c #BFD8ED",
" . c #C2D4E6",
".. c #C1D6EA",
"X. c #C3DAED",
"o. c #CADDEF",
"O. c #D1DFEE",
"+. c #CBDFF0",
"@. c #CEE0EF",
"#. c #CEE1F1",
"$. c #D1E2F1",
"%. c #D9E6F2",
"&. c #DCEAF4",
"*. c None",
/* pixels */
"*.*.*.*.*.*.*.*.*.*.*.*.*.*.*.*.*.*.*.*.*.*.*.*.*.*.*.*.*.*.*.*.",
"*.*.*.*.*.*.*.*.*.*.*.*.*.*.*.*.*.*.*.*.*.*.*.*.*.*.*.*.*.*.*.*.",
"*.*.*.*.*.*.*.*.*.*.*.*.: : , , , , , : *.*.*.*.*.*.*.*.*.*.*.*.",
"*.*.*.*.*.*.*.*.*.= : < 4 4 4 4 1 4 4 < 4 ; = *.*.*.*.*.*.*.*.*.",
"*.*.*.*.*.*.*.*.& ; , < 4 4 4 4 4 4 < < < : > & *.*.*.*.*.*.*.*.",
"*.*.*.*.*.*.*.% ; : : : : , , , , , , , : = = & $ *.*.*.*.*.*.*.",
"*.*.*.*.*.*.@ $ & = = ; ; ; : : = = : = = = & % # + *.*.*.*.*.*.",
"*.*.*.*.*.. # # $ $ % & * = = = = = = & & $ # # # @ . *.*.*.*.*.",
"*.*.*.*.1 @ @ @ o # # $ $ $ $ $ $ $ # # # # # o X X X   *.*.*.*.",
"*.*.*.l m > . X o o o o + $ 4 q f 6 4 < , < , < < < < < 3 *.*.*.",
"*.*.*.v D l # X o o o $ f ' O.O.$.%.%...` ` ` { { } ....[ *.*.*.",
"*.*.*.D I D 1   X o # B O.] R T Y ^ ] %.%.} X.X.+.@.$.$.@.*.*.*.",
"*.*.l m I U v #   X q o.J A F F F F A T %.%.+.$.#.#.$.$.@.! *.*.",
"*.*.c D I I I 5   . Q R c V Z A A A V V R &.$.$.#.@.$.$.$. .*.*.",
"*.*.n D I I U m # ;  .V k c V V V V c k C O.%.$.$.$.@.$.O.X.*.*.",
"*.*.c m D I I I p q ' d j k k k k k k j d | &.#.$.#.$.$.$.X.*.*.",
"*.*.b m D I I I Z G ] a s s g g j j s s s ` &.@.$.$.#.$.#.| *.*.",
"*.*.l m D I I I P T [ a y a y s a a a y s ..%.$.@.$.#.#.@.| *.*.",
"*.*.d m m I I I U U ..v e r t t t r r e C %.$.@.#.#.$.#.o.Q *.*.",
"*.*.p n m P I I U U _ ` y w w w w w w a } $.$.$.#.#.#.@.X.K *.*.",
"*.*.*.x m m D U P P U { { g w - - w j [ %.$.@.$.$.$.+.o.} *.*.*.",
"*.*.*.d n m D D P U P U _ } ( ^ R ( { { +.$.$.$.@.+.o.X.W *.*.*.",
"*.*.*.< z n m m P P I I I U ~ _ ( Y U { $.@.$.$.@.X.X.{ N *.*.*.",
"*.*.*.*.a x m m m D P P I I I P P Z ~ +.$.$.+.+.X.X.{ L *.*.*.*.",
"*.*.*.*.*.d x n n m D P P P P P D P | #.#.#.@.X.| { ^ *.*.*.*.*.",
"*.*.*.*.*.* h x b n m m m m D D m ) +.#.+.X.| | { / 0 *.*.*.*.*.",
"*.*.*.*.*.*.% p z b b n m n m n P { X.| | } { _ J 8 *.*.*.*.*.*.",
"*.*.*.*.*.*.*.*.u h z x b b n n ~ } } { { _ ^ G *.*.*.*.*.*.*.*.",
"*.*.*.*.*.*.*.*.*.* u h z z z D _ _ ) ^ ~ S 9 *.*.*.*.*.*.*.*.*.",
"*.*.*.*.*.*.*.*.*.*.*.O > 1 a C U H M f 2 *.*.*.*.*.*.*.*.*.*.*.",
"*.*.*.*.*.*.*.*.*.*.*.*.*.*.*.*.*.*.*.*.*.*.*.*.*.*.*.*.*.*.*.*.",
"*.*.*.*.*.*.*.*.*.*.*.*.*.*.*.*.*.*.*.*.*.*.*.*.*.*.*.*.*.*.*.*."
};
