/* XPM */
static char *eclipse_r[] = {
/* columns rows colors chars-per-pixel */
"32 32 182 2 ",
"   c #1F620D5A3577",
".  c #206A0E0236AC",
"X  c #22CC0EFE39AC",
"o  c #252911733C37",
"O  c #280D12383F9E",
"+  c #2B5A14964376",
"@  c #2EB919834623",
"#  c #34BD1CDA4D1E",
"$  c #394A1E9B535A",
"%  c #361E22924C9A",
"&  c #3BA923985344",
"*  c #3F6B2C0B554C",
"=  c #3EDB22905A7A",
"-  c #44EF2BFB5CDE",
";  c #46A931375CFB",
":  c #4475264C6039",
">  c #46F92B10621B",
",  c #4DBC2DAD6A59",
"<  c #4B3A340263A2",
"1  c #4ED237D264C3",
"2  c #4F8133086B35",
"3  c #529F35846FBD",
"4  c #537E3B7969E0",
"5  c #5423344D7236",
"6  c #59F93796777C",
"7  c #543239A270C6",
"8  c #59003CC67546",
"9  c #5D573C5A7B11",
"0  c #61613E8D7ED4",
"q  c #546040B06977",
"w  c #5DE144937545",
"e  c #5F8845B67A3E",
"r  c #603C4BF57528",
"t  c #627243717DB0",
"y  c #65724A0F7DE2",
"u  c #674652517C94",
"i  c #696D548B7CEC",
"p  c #61143E74806C",
"a  c #64CD43068157",
"s  c #67614C4E8032",
"d  c #6A534DE082B5",
"f  c #6C5153E782E4",
"g  c #6EF95BA48400",
"h  c #69D553078824",
"j  c #700F57668585",
"k  c #71E45B83865D",
"l  c #731A5B0D8AC9",
"z  c #727E562A9021",
"x  c #75935B62927E",
"c  c #7A7C5DB39451",
"v  c #7DC057739EF7",
"b  c #7BF25DD0988D",
"n  c #745362C786B3",
"m  c #76F363428A95",
"M  c #7AAB65948DAC",
"N  c #7B5E6A678DBB",
"B  c #7C8F64C295D3",
"V  c #7E38692B90A5",
"C  c #7EA66A659B44",
"Z  c #80F06744977F",
"A  c #80B96D26940B",
"S  c #821465A19BFB",
"D  c #840C6B6F9BF3",
"F  c #84367455955A",
"G  c #87FB74F09D7F",
"H  c #891077189A02",
"J  c #8DA07C3E9E1B",
"K  c #81AA5B83A35A",
"L  c #864E6337A526",
"P  c #86CE6BBDA09D",
"I  c #8A7D6CC7A4E6",
"U  c #865B600BA95A",
"Y  c #89B764A1AB37",
"T  c #8DBB6C36AB56",
"R  c #90496E0FAE3B",
"E  c #8C4473DFA4B2",
"W  c #8DD27A14A39C",
"Q  c #8E5D70ADA9EF",
"!  c #90E675DFA74E",
"~  c #91EE7394AC92",
"^  c #92C07AE7AA79",
"/  c #8DB36724B21F",
"(  c #921A6C7AB58A",
")  c #94466E2BB98F",
"_  c #966C75CAB2C5",
"`  c #992C779DB76B",
"'  c #979D7850B1F6",
"]  c #9A297B88B4FC",
"[  c #96AB7172BA37",
"{  c #996E74D9BC53",
"}  c #9D2E7C04BB83",
"|  c #A05A7DB5C1D6",
" . c #A3947D7ECA2A",
".. c #8E5E82119EA6",
"X. c #905780699EE1",
"o. c #9591841FA755",
"O. c #9A1B8C88A724",
"+. c #978E871AA980",
"@. c #9B00877AAD13",
"#. c #9A678AFFAAD1",
"$. c #9EDC913DADAD",
"%. c #96F080EDB0FD",
"&. c #9C688487B49E",
"*. c #9EEB8C47B353",
"=. c #9F3A826BB93C",
"-. c #A2479507AE91",
";. c #A2898F84B553",
":. c #A1B78344BC77",
">. c #A5638BC9BCE2",
",. c #A4C1950DB573",
"<. c #A726994AB574",
"1. c #AB059E82B7E7",
"2. c #A68493E3BD0E",
"3. c #A9AE92B8BE31",
"4. c #AB989ABBBCFA",
"5. c #AFE5A52CBA36",
"6. c #A40D8381C27F",
"7. c #A7AA8B32C05C",
"8. c #AA1F8DD3C36B",
"9. c #A7C489E9C920",
"0. c #AC808DD1C8CB",
"q. c #AC69934EC466",
"w. c #ADB69C2CC217",
"e. c #AE849297CA27",
"r. c #B1239672C7E1",
"t. c #B1AF9CF4C379",
"y. c #B16F93FBCCC4",
"u. c #B5559D48CB52",
"i. c #B8C69F30CEF7",
"p. c #B32791F8D544",
"a. c #B70F9B7ED26C",
"s. c #B8CE9F60D154",
"d. c #B9519B89D889",
"f. c #B3DBA3D8C48C",
"g. c #B5D0AA24C46D",
"h. c #B631A4C9CA50",
"j. c #BA1CA505CD41",
"k. c #B781A893C9D5",
"l. c #BC14AB95CD88",
"z. c #BEB9B5ECC711",
"x. c #BE55B3F0CACF",
"c. c #BD00A465D32C",
"v. c #BE6BAB55D11A",
"b. c #BD3DA2C0D9C2",
"n. c #BF42B166D149",
"m. c #C1B2B568CE1C",
"M. c #C33EBA3ACDBA",
"N. c #C146A81BD79D",
"B. c #C175ADE0D334",
"V. c #C4A5AD44DACC",
"C. c #C470B3AFD3F5",
"Z. c #C8BBB7CDD7BA",
"A. c #C58BBA87D3E8",
"S. c #CAD3BE03D7D1",
"D. c #C79EB33EDC57",
"F. c #C998B5EFDB24",
"G. c #CB9DB9D4DB6B",
"H. c #D0B7BFC8DEFC",
"J. c #CB4EB43DE294",
"K. c #CF60BB80E254",
"L. c #CA69C24FD74C",
"P. c #CC07C1BCD9BA",
"I. c #D25ACA3ADD95",
"U. c #D6F5D14DDD89",
"Y. c #D945D45DDF05",
"T. c #D52BC4FBE3FB",
"R. c #D64BCB71E296",
"E. c #D9D1CCD7E5B9",
"W. c #D6FDC51DE922",
"Q. c #DAC6CC07E910",
"!. c #DCDAD490E529",
"~. c #DE65DA7BE321",
"^. c #DF93D398EAA5",
"/. c #E250DF13E683",
"(. c #E1FAD689EC5B",
"). c #E5B8DC43EE44",
"_. c #E719E304EB8D",
"`. c #E8EAE495ED84",
"'. c #EC33E4C5F32B",
"]. c #EFCEE9CAF578",
"[. c #F195EC13F6AB",
"{. c None",
/* pixels */
"{.{.{.{.{.{.{.{.{.{.{.{.< < ; - * & % @ {.{.{.{.{.{.{.{.{.{.{.{.",
"{.{.{.{.{.{.{.{.{.{.k B G +.<.1.<.O.F u ; % O {.{.{.{.{.{.{.{.{.",
"{.{.{.{.{.{.{.{.F +.4.A.!._._._.`._./.U.5.n ; @ {.{.{.{.{.{.{.{.",
"{.{.{.{.{.{.N $.f.x.I./.~.U.U.U.U.Y.Y.~.~.M.A 1 # X {.{.{.{.{.{.",
"{.{.{.{.{...g.k.k.k.M.M.m.m.z.m.z.x.z.m.M.z.O.i - + . {.{.{.{.{.",
"{.{.{.{...x.x.f.2.,.,.,.-.<.-.<.<.<.<.-.-.O.X.n 4 # X . {.{.{.{.",
"{.{.{.F x.A.k.2.^ ! W J J J J J J J J J H F N i 4 & O . . {.{.{.",
"{.{.{.g.L.l.2.E B l l n m M A Z V V V N m k i w < & + . . X {.{.",
"{.{.<.L.n.f.%.z e e u h f j j l l l k j i u w 4 - $ + . . . {.{.",
"{.{.A.L.l.*.x 7 7 8 e e y d d d d d i y t 9 8 2 - $ + o . . . {.",
"{.g.I.A.w.C w 2 5 5 9 e t t a a y a y 0 9 6 5 , : $ @ + o . X {.",
"{.A.I.n.^ h 8 3 5 5 9 p p t a p a a 0 0 9 6 5 , : : $ # @ + o {.",
"{.I.R.l.@.W C C C E ! ^ ^ ^ ^ ^ ' ! ! ! E P D Z M l f u r 4 * @ ",
"l.U.I.l.w.2.;.*.;.q.w.t.t.t.t.t.r.t.j.C.m.t.;.;.@.o.W G A n q % ",
"A.I.n.2.%.E P C C C I Q ~ ~ ~ Q ! ~ >.3.3.*.P S B c l l d r 1 % ",
"A.U.P.C.k.f.f.f.k.l.n.n.C.C.B.C.B.m.C.C.C.B.k.f.t.4.,.;.*.W k ; ",
"A.A.k.q.] ~ Q I I Q R R ' ' ' ' ' _ ~ ' ' ~ T I L Z c c c z c 1 ",
"A.P.P.Z.B.l.l.l.v.B.Z.F.C.G.G.G.Z.Z.Z.Z.C.B.B.v.j.t.t.t.3.8.3.i ",
"x.A.n.h.q.>.:.:.=.:.>.>.7.7.3.8.r.3.7.>.>.>.:.:.=.' ! :.9.y.3.A ",
"{.A.n.v.u.r.8.r.r.r.t.u.j.v.j.v.j.j.j.t.j.t.r.3.>.=.] 8.a.c.t.i ",
"{.A.v.n.i.r.0.0.r.u.u.u.i.v.T.(.Z.B.i.j.j.u.r.7.>.=.} y.b.D.4.{.",
"{.n.h.q.| [ / / Y ( ` ` } } r.B.7.:.:.:.} ' R L K K K  .d.F.+.{.",
"{.{.j.8.| { ( ( [ { } 6.8.8.8.8.0.r.8.0.8.:.' Y L v / p.J.Z.m {.",
"{.{.k.q. .{ ( [ } | 7.0.y.a.i.i.i.i.G.H.G.N.:._ Y L | V.W.<.{.{.",
"{.{.{.q.} { ) { | 0.y.a.i.N.N.V.V.D.).'.'.W.q.` R R a.W.S.N {.{.",
"{.{.{.q.~ Y ( [ 6.0.a.N.V.F.K.K.T.W.(.].'.T.r.:._ 9.K.E.$.{.{.{.",
"{.{.{.{.q.T U ( | y.N.V.K.T.W.Q.^.(.(.(.).H.u.>.:.N.Q.f.{.{.{.{.",
"{.{.{.{.{.h.] / ` q.N.F.H.Q.(.).).'.'.'.(.Z.i.8.s.T.k.{.{.{.{.{.",
"{.{.{.{.{.{.A.8._ >.c.H.E.(.).'.[.].].).E.G.i.a.D.f.{.{.{.{.{.{.",
"{.{.{.{.{.{.{.{.B.8.8.j.T.).).'.'.'.`.).T.v.s.j.{.{.{.{.{.{.{.{.",
"{.{.{.{.{.{.{.{.{.{.C.j.v.F.R.!.(.!.W.G.j.u.w.{.{.{.{.{.{.{.{.{.",
"{.{.{.{.{.{.{.{.{.{.{.{.Z.B.B.B.B.v.h.t.{.{.{.{.{.{.{.{.{.{.{.{."
};
