/* XPM */
static char *favorites_png[] = {
/* columns rows colors chars-per-pixel */
"32 32 137 2 ",
"   c #BC6F08",
".  c #B47108",
"X  c #BA7109",
"o  c #BF7E0D",
"O  c #C16E08",
"+  c #C3730C",
"@  c #DB750D",
"#  c #D77D0F",
"$  c #DF7714",
"%  c #D67914",
"&  c #DA7B13",
"*  c #E2780E",
"=  c #EB780F",
"-  c #E47612",
";  c #E17F11",
":  c #E17F19",
">  c #BD820E",
",  c #BF8512",
"<  c #C38312",
"1  c #C98411",
"2  c #C58B16",
"3  c #CF8813",
"4  c #D18411",
"5  c #DA8212",
"6  c #EA8012",
"7  c #E18C16",
"8  c #EB8A16",
"9  c #E68019",
"0  c #EF891A",
"q  c #FE8516",
"w  c #F48A17",
"e  c #FD8917",
"r  c #FE861E",
"t  c #F28C1A",
"y  c #FF8E19",
"u  c #EC941C",
"i  c #F3931B",
"p  c #FF951C",
"a  c #FF9B1E",
"s  c #EE8422",
"d  c #EE8A22",
"f  c #F58321",
"g  c #F28C27",
"h  c #FF8E23",
"j  c #F78F29",
"k  c #FB8F2E",
"l  c #EC9624",
"z  c #FD9423",
"x  c #FF9D20",
"c  c #FA942C",
"v  c #FE9B2C",
"b  c #EB9C34",
"n  c #EB9D38",
"m  c #FD9831",
"M  c #EDA123",
"N  c #EBA329",
"B  c #FFA422",
"V  c #FFAB25",
"C  c #FFAD29",
"Z  c #FFB127",
"A  c #FFB529",
"S  c #FFBA2C",
"D  c #EBA834",
"F  c #ECA03B",
"G  c #EBAC3B",
"H  c #FAA531",
"J  c #FCB434",
"K  c #FFBB32",
"L  c #FCB33B",
"P  c #FFB83A",
"I  c #FFC036",
"U  c #FFC33C",
"Y  c #F3AC4B",
"T  c #F9AF4C",
"R  c #E3B94E",
"E  c #FFB746",
"W  c #FFB843",
"Q  c #F4B24F",
"!  c #F3BC4D",
"~  c #FEBC4D",
"^  c #E5BF57",
"/  c #EFB850",
"(  c #FAB557",
")  c #FFBB53",
"_  c #FFC645",
"`  c #FFC64C",
"'  c #FFCA4F",
"]  c #E4C255",
"[  c #E7C55A",
"{  c #E7CA59",
"}  c #E9CB5D",
"|  c #F2C252",
" . c #FDC452",
".. c #FFCD54",
"X. c #F3C05E",
"o. c #F3C95C",
"O. c #FFCF59",
"+. c #FFD05B",
"@. c #F7CF66",
"#. c #FBCD63",
"$. c #FDC36C",
"%. c #F6C86B",
"&. c #FFCB6F",
"*. c #FFD363",
"=. c #F5D16D",
"-. c #FED36B",
";. c #FFD96E",
":. c #F5CF74",
">. c #FDCE71",
",. c #FAC979",
"<. c #FED673",
"1. c #FFDA74",
"2. c #FFD67C",
"3. c #F5D97E",
"4. c #FEDC7B",
"5. c #FBE37D",
"6. c #FCCF84",
"7. c #F6D783",
"8. c #FBD581",
"9. c #FFDD83",
"0. c #FED48C",
"q. c #F6DE8D",
"w. c #FFDA8A",
"e. c #FED790",
"r. c #FFDA91",
"t. c #FFE385",
"y. c #FFE38C",
"u. c #F7E395",
"i. c #FFE593",
"p. c #FFE995",
"a. c #FFEA9C",
"s. c #FEECA4",
"d. c #FFEFAB",
"f. c #FEEFB2",
"g. c #FFF4BC",
"h. c #FEF6CC",
"j. c None",
/* pixels */
"j.j.j.j.j.j.j.j.j.j.j.j.j.j.j.j.j.j.j.j.j.j.j.j.j.j.j.j.j.j.j.j.",
"j.j.j.j.j.j.j.j.j.j.j.j.j.j.j.5.5.j.j.j.j.j.j.j.j.j.j.j.j.j.j.j.",
"j.j.j.j.j.j.j.j.j.j.j.j.j.j.{ h.h.} j.j.j.j.j.j.j.j.j.j.j.j.j.j.",
"j.j.j.j.j.j.j.j.j.j.j.j.j.j.u.g.g.u.j.j.j.j.j.j.j.j.j.j.j.j.j.j.",
"j.j.j.j.j.j.j.j.j.j.j.j.j.{ f.d.d.f.[ j.j.j.j.j.j.j.j.j.j.j.j.j.",
"j.j.j.j.j.j.j.j.j.j.j.j.j.q.d.a.s.f.q.j.j.j.j.j.j.j.j.j.j.j.j.j.",
"j.j.j.j.j.j.j.j.j.j.j.j.] a.p.a.a.a.s.^ j.j.j.j.j.j.j.j.j.j.j.j.",
"j.j.j.j.j.j.j.j.j.j.j.j.3.p.y.i.i.i.s.7.j.j.j.j.j.j.j.j.j.j.j.j.",
"j.j.j.j.j.j.j.j.j.j.j.R t.t.t.y.y.y.i.i.R j.j.j.j.j.j.j.j.j.j.j.",
"j.j.j.j.j.j.j.j.j.j.j.=.5.5.5.5.t.9.9.r.:.j.j.j.j.j.j.j.j.j.j.j.",
"j.j.j.j.j.j.| o.@.=.4.4.;.1.1.4.4.4.4.9.w.8.,.%.X./ j.j.j.j.j.j.",
"j.! @.-.-.1.1.1.1.;.;.*.*.*.;.;.<.<.<.<.2.w.w.r.r.e.0.6.,.$.Q j.",
"j.! #.+.+.O.O.O.......O.O.+.+.*.#.-.-.-.-.&.-.>.&.&.&.$.$.$.Y j.",
"j.2 G | ..' ' ' ' ' ..' ' ' ' _ ` ` `  . . . .~ ) ~ E ) ( F 1 j.",
"j.j.2 G ) O.` _ _ U U U I I I S K S K K J P P W E E ) ( n < j.j.",
"j.j.j.2 D ! ` P I S S S S S S S A A Z Z Z Z V C C L T n < j.j.j.",
"j.j.j.j., N L K A S A A A A A Z A Z Z Z Z V V V B H l < j.j.j.j.",
"j.j.j.j.j.> N J A Z A Z A Z Z Z Z Z V V V V B B B l o j.j.j.j.j.",
"j.j.j.j.j.j.> M A Z Z Z Z Z Z Z V Z V B B B B B l o j.j.j.j.j.j.",
"j.j.j.j.j.j.j.1 B V Z V V V V V B B V B B B B a 1 j.j.j.j.j.j.j.",
"j.j.j.j.j.j.j.3 B V V V B V B B B B B B a B a a 4 j.j.j.j.j.j.j.",
"j.j.j.j.j.j.j.7 B B B B B B B B B B B a a a a p 7 j.j.j.j.j.j.j.",
"j.j.j.j.j.j.j.u B B B B B B B x x a a a a a a p 8 j.j.j.j.j.j.j.",
"j.j.j.j.j.j.j.u a x x a a a a a a a a a p p p p w j.j.j.j.j.j.j.",
"j.j.j.j.j.j.j.i a a a a p a x a p p p p p p y p w j.j.j.j.j.j.j.",
"j.j.j.j.j.j.j.p a a p a z z t 5 5 0 z z p y y y e j.j.j.j.j.j.j.",
"j.j.j.j.j.j.# p p z v m d # . j.j.. % s k c h e q @ j.j.j.j.j.j.",
"j.j.j.j.j.j.5 y z m g & X j.j.j.j.j.j.. $ s k h q * j.j.j.j.j.j.",
"j.j.j.j.j.j.6 z j : X j.j.j.j.j.j.j.j.j.j.  - f r = j.j.j.j.j.j.",
"j.j.j.j.j.j.* : + j.j.j.j.j.j.j.j.j.j.j.j.j.j.O - @ j.j.j.j.j.j.",
"j.j.j.j.j.j.j.j.j.j.j.j.j.j.j.j.j.j.j.j.j.j.j.j.j.j.j.j.j.j.j.j.",
"j.j.j.j.j.j.j.j.j.j.j.j.j.j.j.j.j.j.j.j.j.j.j.j.j.j.j.j.j.j.j.j."
};
