/* XPM */
static char *office_png[] = {
/* columns rows colors chars-per-pixel */
"32 32 54 1 ",
"  c #050505",
". c #070707",
"X c #080708",
"o c #090809",
"O c #090909",
"+ c #0A0A0A",
"@ c #0B0B0B",
"# c #0C0C0C",
"$ c #0D0C0D",
"% c #0E0D0E",
"& c #0F0F0F",
"* c #100F10",
"= c #111011",
"- c #111111",
"; c #121112",
": c #121212",
"> c #131213",
", c #131313",
"< c #141314",
"1 c #151415",
"2 c #151515",
"3 c #161516",
"4 c #171617",
"5 c #171717",
"6 c #181718",
"7 c #181818",
"8 c #191819",
"9 c #191919",
"0 c #1A191A",
"q c #1B1B1B",
"w c #1C1B1C",
"e c #1C1C1C",
"r c #232323",
"t c #242324",
"y c #292929",
"u c #2C2C2C",
"i c #2F2F2F",
"p c #303030",
"a c #363536",
"s c #373637",
"d c #393939",
"f c #404040",
"g c #424142",
"h c #434343",
"j c #444344",
"k c #4B4B4B",
"l c #4F4E4F",
"z c #515151",
"x c #525152",
"c c #535253",
"v c #585858",
"b c #595859",
"n c #5A595A",
"m c None",
/* pixels */
"mmmmmmmmmmmmmmmmmmmmmmmmmmmmmmmm",
"mmmmmmmmmmmmmmmmmmmmmmmmmmmmmmmm",
"mmmmmm.@$$@$$@$#$$$@mmmmmmmmmmmm",
"mmmmm$ylzzzzzzzzzzzf=mmmmmmmmmmm",
"mmmmm0mmmmmmmmmmmmmm1$mmmmmmmmmm",
"mmmmm0mmmmmmmmmmmmmm0r$mmmmmmmmm",
"mmmmm6mmmmmmmmmmmmmm0mt@mmmmmmmm",
"mmmmm0mmmmmmmmmmmmmm1mme@mmmmmmm",
"mmmmm6mmmmmmmmmmmmmm0mmm1mmmmmmm",
"mmmmm0mmmmmmmmmmmmmma=.6e$mmmmmm",
"mmmmm6mmmmmmmmmmmmmmmkpupp=mmmmm",
"mmmmm0mmmmmmmmmmmmmmmmmmmmemmmmm",
"mmmmm0mmmmmmmmmmmmmmmmmmmm0mmmmm",
"mmmmm6mmmmmmmmmmmmmmmmmmmm6mmmmm",
"mmmmm6mmmmm0000000000mmmmm1mmmmm",
"mmmmm0mmmmmmmmmmmmmmmmmmmm0mmmmm",
"mmmmm6mmmmmmmmmmmmmmmmmmmm1mmmmm",
"mmmmm0mmmmm1011111111mmmmm0mmmmm",
"mmmmm0mmmmmmmmmmmmmmmmmmmm0mmmmm",
"mmmmm6mmmmmmmmmmmmmmmmmmmm1mmmmm",
"mmmmm6mmmmm===<==<=1=mmmmm0mmmmm",
"mmmmm0mmmmmmmmmmmmmmmmmmmm1mmmmm",
"mmmmm6mmmmmmmmmmmmmmmmmmmm1mmmmm",
"mmmmm0mmmmm=*====&=$=mmmmm0mmmmm",
"mmmmm6mmmmmbbbbbbbbbbmmmmm1mmmmm",
"mmmmm0mmmmmmmmmmmmmmmmmmmm0mmmmm",
"mmmmm6mmmmmmmmmmmmmmmmmmmm0mmmmm",
"mmmmm6mmmmmmmmmmmmmmmmmmmm1mmmmm",
"mmmmm6mmmmmmmmmmmmmmmmmmmm0mmmmm",
"mmmmma=@@@XXX.@@@@XX.@@.@=dmmmmm",
"mmmmmmbfjfffffjffffffjjffmmmmmmm",
"mmmmmmmmmmmmmmmmmmmmmmmmmmmmmmmm"
};
