/* XPM */
static char *pidgin_png[] = {
/* columns rows colors chars-per-pixel */
"32 32 179 2 ",
"   c #411C49",
".  c #4F2057",
"X  c #542B5C",
"o  c #54325A",
"O  c #5B2666",
"+  c #5C3663",
"@  c #573368",
"#  c #5E3471",
"$  c #622D6E",
"%  c #603569",
"&  c #693774",
"*  c #693D74",
"=  c #584A70",
"-  c #67436E",
";  c #6F4C77",
":  c #72417D",
">  c #74517B",
",  c #BF5503",
"<  c #BA5B22",
"1  c #CE5B00",
"2  c #C55908",
"3  c #D77216",
"4  c #DC7819",
"5  c #DB7C21",
"6  c #9E5A57",
"7  c #99585C",
"8  c #A05F5E",
"9  c #A6604E",
"0  c #9A6B7E",
"q  c #A86B6F",
"w  c #B67F64",
"e  c #A37278",
"r  c #CB8553",
"t  c #DE9E55",
"y  c #E29F50",
"u  c #ECA342",
"i  c #FBB24C",
"p  c #F2AE53",
"a  c #F6B150",
"s  c #FDB750",
"d  c #D39F7C",
"f  c #D6A075",
"g  c #7E368F",
"h  c #7D3C8D",
"j  c #774382",
"k  c #784283",
"l  c #794984",
"z  c #7D428C",
"x  c #7E498B",
"c  c #7B5B83",
"v  c #7F518A",
"b  c #557393",
"n  c #5B7897",
"m  c #5D7C9D",
"M  c #7D6185",
"N  c #833C94",
"B  c #814C8D",
"V  c #805F87",
"C  c #82528D",
"Z  c #805B88",
"A  c #844194",
"S  c #854D93",
"D  c #845191",
"F  c #8A5397",
"G  c #8D5799",
"H  c #8E5B9A",
"J  c #915D9D",
"K  c #806086",
"L  c #84628B",
"P  c #906781",
"I  c #976B87",
"U  c #986B85",
"Y  c #856490",
"T  c #896790",
"R  c #8C6A94",
"E  c #906C97",
"W  c #93639E",
"Q  c #916C9A",
"!  c #A67680",
"~  c #AD7F87",
"^  c #955FA1",
"/  c #9564A1",
"(  c #9867A3",
")  c #9669A0",
"_  c #9A6BA5",
"`  c #9D6DA8",
"'  c #9B72A4",
"]  c #9C78A4",
"[  c #9E72A9",
"{  c #A175AB",
"}  c #A47AAE",
"|  c #A67DB0",
" . c #A97DB3",
".. c #AD7CB8",
"X. c #64809E",
"o. c #6F88A2",
"O. c #718AA5",
"+. c #7583AB",
"@. c #B28795",
"#. c #B3909E",
"$. c #9787A0",
"%. c #9886A6",
"&. c #8298B0",
"*. c #8A9EB4",
"=. c #A480AD",
"-. c #A881AF",
";. c #B18AA2",
":. c #B28FA9",
">. c #A780B0",
",. c #AA81B3",
"<. c #AB8CB6",
"1. c #AE83B8",
"2. c #AF89B8",
"3. c #B084BA",
"4. c #B38FBB",
"5. c #B593BD",
"6. c #B29BBA",
"7. c #9AACBF",
"8. c #B6A0BC",
"9. c #ECC9A1",
"0. c #B795C0",
"q. c #BD96C5",
"w. c #B79BC1",
"e. c #BA9BC3",
"r. c #97B1CC",
"t. c #91B3D9",
"y. c #B2A6C3",
"u. c #BBA8CF",
"i. c #A6B5C6",
"p. c #A6B6C8",
"a. c #B9B4C5",
"s. c #A5BDD7",
"d. c #C1ABC6",
"f. c #C3A2CB",
"g. c #C5ACCB",
"h. c #C8ABCE",
"j. c #CAB8CF",
"k. c #D1BCCD",
"l. c #CAABD2",
"z. c #CEB5D4",
"x. c #BAC8D5",
"c. c #B9CADC",
"v. c #BBD1E7",
"b. c #C3CDDB",
"n. c #D2C3D5",
"m. c #D6C2DC",
"M. c #C5D1DE",
"N. c #CDD0DE",
"B. c #D2D1DC",
"V. c #C7D4E3",
"C. c #CBD5E2",
"Z. c #CDD8E4",
"A. c #C5D7EB",
"S. c #CCD4E9",
"D. c #CCDBEA",
"F. c #D3DCE5",
"G. c #DEDDE5",
"H. c #D1DDEC",
"J. c #E2D2E6",
"K. c #E6DEE7",
"L. c #E6D6E9",
"P. c #EBDFEE",
"I. c #D9E0E7",
"U. c #D5E1EE",
"Y. c #DBE3ED",
"T. c #D5E2F1",
"R. c #DBE6F3",
"E. c #DEE8F4",
"W. c #EBE2ED",
"Q. c #EEE3F0",
"!. c #E2EBF5",
"~. c #E8EFF7",
"^. c #E6EEF8",
"/. c #F4EEF5",
"(. c #EDF3F9",
"). c #F3F6FA",
"_. c #F6F9FC",
"`. c #FDFDFE",
"'. c None",
/* pixels */
"'.'.'.'.'.'.'.'.'.'.'.'.'.'.'.'.'.'.'.'.'.'.'.'.'.'.'.'.'.'.'.'.",
"'.'.'.'.'.'.'.'.'.'.'.t.v.U.U.R.T.R.T.U.U.U.H.D.D.D.D.A.s.'.'.'.",
"'.'.'.'.'.'.'.'.'.'.t.R.`.`.`.`.`.`.`.`.`.`.`.`.`.`.`.`._.c.'.'.",
"'.'.'.'.'.'.'.'.'.'.A.`.`.`.`.`.`.`.`.`.`.`.`.`.`.`.`.`.`.).r.'.",
"'.'.'.'.'.'.'.'.'.+.Y.`.`._._.`.`.`.`._.`._._.`._.`._.`.`.`.c.'.",
"'.'.'.'.'.'.'.'.  @ Q m._.`._._._._._._._._._._._._._._._.`.C.'.",
"'.'.'.'.'.'.'.. O # $ k 6.G.(._.).).).)._._.).)._.)._.).)._.D.'.",
"'.'.'.'.'.'.'.o ; L E R L M $.B.).(.(.).(.(.(.).).(.(.(.).).C.'.",
"'.'.'.'.'.'.; ] >.} } }  .-.E M a.~.(.(.~.(.(.(.~.(.~.(.(.(.C.'.",
"'.'.'.'.'.c -.[ _ _ [ [ { { ,.>.c a.~.~.~.~.~.~.~.~.~.~.~.(.V.'.",
"'.'.'.'.> -._ ) [ [ } } } } }  .-.M N.!.!.^.!.!.!.!.~.~.!.(.M.'.",
"'.'.'.o ] _ H W W } | ,.,.,. .' ) c %.R.!.!.!.E.!.!.E.E.!.^.b.'.",
"'.'.'.> | W j.W.d.) | 1.2.2.| ] n.W.8.y.E.E.E.E.E.E.E.E.R.!.b.'.",
"'.'.'.T _ 6./.l.J.g.} 4.4.5.} g.z.l.Q.<.S.R.T.R.R.R.T.T.R.E.b.'.",
"'.'.'.E ( z.m.S ,.W.| 5.e.e.1.f.W x W.w.V.T.T.T.T.T.T.T.T.E.x.'.",
"'.'.'.E _ h.J.B 0.Q.1.e.e.e.5.3.G ) Q.e.S.T.T.T.T.T.T.T.T.!.p.'.",
"'.'.'.T [ ..L.P.Q.f.3.0.:.;.5.1...l.u.u.T.T.T.T.T.T.T.T.R.E.&.'.",
"'.'.'.Y } _ ..q.3. .e.n.f r k.u.,.| Z b.Y.U.Y.E.T.E.Y.U.F.7.'.'.",
"'.'.'.L } ` } _ e ~ #.9.a 5 d @.8 U = m X.m X.N.!.Z.X.n b '.'.'.",
"'.'.'.Z } [ [ } ! y p a u 3 , 2 < P '.'.'.'.n F.~.*.'.'.'.'.'.'.",
"'.'.'.T } _ ` } [ e t s i 4 1 2 q R '.'.'.'.O.I.i.'.'.'.'.'.'.'.",
"'.'.'.E ` ( [ [ } [ I w y 4 2 6 -.V '.'.'.'.b O.'.'.'.'.'.'.'.'.",
"'.'.o ] / / _ ` [ } | ' I 9 7 _ ,.> '.'.'.'.'.'.'.'.'.'.'.'.'.'.",
"'.'.- [ H / ( _ [ [ [ } } ' [ { ,.K '.'.'.'.'.'.'.'.'.'.'.'.'.'.",
"'.'.j ^ G J ^ / _ _ ' [ [ [ [ _ { ] o '.'.'.'.'.'.'.'.'.'.'.'.'.",
"'.X A A F G H ^ / / ( ( _ ( _ / / } E + '.'.'.'.'.'.'.'.'.'.'.'.",
"'.& N g S F G H J W / / / / / / J J W C * X '.'.'.'.'.'.'.'.'.'.",
"'.: h h N S G H J J W / / / / ^ J H F x x l % '.'.'.'.'.'.'.'.'.",
"'.: x z z D H W ) ) _ ' ' ' ' ' ) W H D B C C '.'.'.'.'.'.'.'.'.",
"'.'.'.'.'.'.'.'.'.'.'.'.'.'.'.'.'.'.'.'.'.'.'.'.'.'.'.'.'.'.'.'.",
"'.'.'.'.'.'.'.'.'.'.'.'.'.'.'.'.'.'.'.'.'.'.'.'.'.'.'.'.'.'.'.'.",
"'.'.'.'.'.'.'.'.'.'.'.'.'.'.'.'.'.'.'.'.'.'.'.'.'.'.'.'.'.'.'.'."
};
