/* XPM */
static char *pithos_png[] = {
/* columns rows colors chars-per-pixel */
"32 32 120 2 ",
"   c #36547E",
".  c #6C6B63",
"X  c #7A6E64",
"o  c #7C7369",
"O  c #7B786E",
"+  c #7F7E77",
"@  c #727578",
"#  c #81776D",
"$  c #82796F",
"%  c #847D73",
"&  c #887F75",
"*  c #868075",
"=  c #8A8277",
"-  c #878478",
";  c #8C867A",
":  c #948C7E",
">  c #244F8C",
",  c #26518E",
"<  c #28528F",
"1  c #275391",
"2  c #295694",
"3  c #2C5995",
"4  c #2D5C9A",
"5  c #315B94",
"6  c #335F9B",
"7  c #33619D",
"8  c #3C669D",
"9  c #3465A3",
"0  c #3867A4",
"q  c #3B6AA6",
"w  c #3D6CA8",
"e  c #48648B",
"r  c #536985",
"t  c #4B6B96",
"y  c #426799",
"u  c #4E6F9B",
"i  c #526E94",
"p  c #5C7291",
"a  c #577298",
"s  c #647285",
"d  c #65768C",
"f  c #69788E",
"g  c #647791",
"h  c #6C7C93",
"j  c #416BA3",
"k  c #406EA9",
"l  c #4471AB",
"z  c #4A75AD",
"x  c #4D78AF",
"c  c #5576A2",
"v  c #5378AA",
"b  c #557EB2",
"n  c #7A8088",
"m  c #748090",
"M  c #798392",
"N  c #5B83B6",
"B  c #6286B6",
"V  c #6187B8",
"C  c #658ABA",
"Z  c #6A8EBC",
"A  c #6E91BE",
"S  c #7193BF",
"D  c #7395C1",
"F  c #8C8A83",
"G  c #8B8C8C",
"H  c #928C82",
"J  c #988D80",
"K  c #979082",
"L  c #9C9385",
"P  c #95938C",
"I  c #999389",
"U  c #9E988F",
"Y  c #879199",
"T  c #8C9399",
"R  c #949491",
"E  c #989691",
"W  c #9E9D96",
"Q  c #959C9F",
"!  c #989999",
"~  c #A09788",
"^  c #A49A8C",
"/  c #AA9E8E",
"(  c #A49C90",
")  c #A29F98",
"_  c #ACA08F",
"`  c #ADA292",
"'  c #A6A49C",
"]  c #A9A59B",
"[  c #AEA99F",
"{  c #B2A694",
"}  c #B5A896",
"|  c #B6AA99",
" . c #BAAD9B",
".. c #BDB09E",
"X. c #8393A2",
"o. c #95A2AA",
"O. c #98A7B1",
"+. c #ACABA3",
"@. c #B4AEA3",
"#. c #B6B0A6",
"$. c #BDB2A1",
"%. c #BAB4AA",
"&. c #BFB9AE",
"*. c #A0AEB6",
"=. c #ACB7BA",
"-. c #B9B8B0",
";. c #C0B39F",
":. c #C1B6A4",
">. c #C4B8A5",
",. c #C4BBAB",
"<. c #C9BEAD",
"1. c #C4BDB0",
"2. c #BBC1BE",
"3. c #CCC0AF",
"4. c #CCC2B3",
"5. c #D0C6B6",
"6. c #D0C7B9",
"7. c #D4CABC",
"8. c #C4C7C0",
"9. c None",
/* pixels */
"9.9.9.9.9.9.9.9.9.9.9.9.9.9.9.9.9.9.9.9.9.9.9.9.9.9.9.9.9.9.9.9.",
"9.9.9.9.9.9.9.9.9.9.9.9.9.9.9.9.9.9.9.9.9.9.9.9.9.9.9.9.9.9.9.9.",
"9.9.9.9.9.9.o o o o # $ % % $ O o X 9.9.9.9.< 5 9.9.9.9.9.9.9.9.",
"9.9.9.9.9.# # $ & ; H P W ' +.+.] I # 9.9.9.5 l 4 9.9.9.9.9.9.9.",
"9.9.9.9.9.& ; H I E Q o.O.*.=.2.8.-.= 9.9.9.7 b 0 3 9.9.9.9.9.9.",
"9.9.9.9.9.H H H H G Y X.X.X.T I H & # 9.9.9.8 b q 9 2 9.9.9.9.9.",
"9.9.9.9.9.[ 1.| / J = = & & = : L / ; 9.9.9.j x 3 q 9 1 9.9.9.9.",
"9.9.9.9.9.,.7.7.3.>.:. . . . . . . .~ 9.9.9.j k < 5 l 9 1 9.9.9.",
"9.9.9.9.+.6.7.7.6.<.,.>.;..... . . .` # 9.9.k q 1 9.j l 6 , 9.9.",
"9.9.9.9.' %.1.4.4.4.<.>.;... .} ` ^ : $ 9.9.j 0 < 9.2 x q 4 9.9.",
"9.9.9.) @.#.#.#.@.@.| _ ( ~ L : ; = = * o < k 9 < 9.9.j z 9 9.9.",
"9.9.+.1.1.%.%.%.#.+.' ( L : ; ; ; = ; L ^ r w 9 , 9.9.5 b 0 , 9.",
"9.9.#.7.7.7.4.-.%.@.] ( I J J K : / ` { ` p k 7 > 9.9.< x k 1 9.",
"9.9.1.7.7.7.7.7.6.<.:.$.| { { }  .} { ` / i k 6 9.9.9.< z q 1 9.",
"9.9.1.7.7.7.7.6.6.<.<.:...| | } { { { ` ( t k 4 9.9.9.1 q 9 1 9.",
"9.9.,.7.7.7.6.6.4.<.:.$.| | } { { { { ` U y w 4 9.9.9.4 9 7 9.9.",
"9.9.#.6.6.6.4.4.<.>... .| | { { { { _ _ P 8 q 3 9.9.2 9 9 2 9.9.",
"9.9.' 4.6.4.4.,.:.$. . .} { } ` / ^ / _ G 8 0 3 9.9.4 9 4 9.9.9.",
"9.9.9.$.4.3.<.>.....| } } { R h a t i f d 8 9 2 9.9.1 3 9.9.9.9.",
"9.9.9.) $.>.$.....{ | } ` M c B Z C N z 6 9 9 1 9.9.9.9.9.9.9.9.",
"9.9.9.9.` $.$. .| } } { M v D D Z C N x w 9 9 1 9.9.9.9.9.9.9.9.",
"9.9.9.9.- {  .| { } { E u A A Z V N l 0 9 9 9 1 9.9.9.9.9.9.9.9.",
"9.9.9.9.9.: { | } { } m v Z C N N k 9 9 9 9 9 > 9.9.9.9.9.9.9.9.",
"9.9.9.9.9.9.K } { { { g b C N N k 9 9 9 9 9 7 > 9.9.9.9.9.9.9.9.",
"9.9.9.9.9.9.9.~ ` { { g z N b l q 9 9 9 9 9 7 9.9.9.9.9.9.9.9.9.",
"9.9.9.9.9.9.9.. = ; : s 7 z z w 9 9 9 9 9 9 4 9.9.9.9.9.9.9.9.9.",
"9.9.9.9.9.9.9.+ ; = * @ 5 q w 9 9 9 9 9 9 9 2 9.9.9.9.9.9.9.9.9.",
"9.9.9.9.9.9.! F / _ ^ ^ f 7 9 9 9 9 9 9 9 4 9.9.9.9.9.9.9.9.9.9.",
"9.9.9.9.9.9.9.- _ ` _ _ ^ g 7 9 9 9 9 9 4 9.9.9.9.9.9.9.9.9.9.9.",
"9.9.9.9.9.9.9.O L ^ ^ / ^ ^ n e 4 4 2 , 9.9.9.9.9.9.9.9.9.9.9.9.",
"9.9.9.9.9.9.9.9.9.9.* % % * 9.9.9.9.9.9.9.9.9.9.9.9.9.9.9.9.9.9.",
"9.9.9.9.9.9.9.9.9.9.9.9.9.9.9.9.9.9.9.9.9.9.9.9.9.9.9.9.9.9.9.9."
};
