/* XPM */
static char *skype_png[] = {
/* columns rows colors chars-per-pixel */
"32 32 110 2 ",
"   c #0FA6DE",
".  c #13A7DE",
"X  c #26A3D1",
"o  c #37AEDA",
"O  c #3EAED8",
"+  c #05AAE7",
"@  c #0EA9E3",
"#  c #01ACEC",
"$  c #0CACE8",
"%  c #17AAE1",
"&  c #11AFEA",
"*  c #0DB1EE",
"=  c #18B5EF",
"-  c #00AFF0",
";  c #03B0F0",
":  c #0BB3F1",
">  c #15B5F1",
",  c #19B7F2",
"<  c #1DB8F2",
"1  c #22AEE3",
"2  c #27B6EC",
"3  c #2CB6E9",
"4  c #32B1E0",
"5  c #24BAF2",
"6  c #2DBDF3",
"7  c #31BEF3",
"8  c #4CA9CC",
"9  c #51ADCF",
"0  c #58ACCC",
"q  c #5FB1CF",
"w  c #7CB2C6",
"e  c #78B3C9",
"r  c #61BDDF",
"t  c #6CBEDD",
"y  c #7BBBD3",
"u  c #74BDD8",
"i  c #43BAE6",
"p  c #4BBDE7",
"a  c #41BCE9",
"s  c #51BAE2",
"d  c #3DC2F4",
"f  c #49C2EE",
"g  c #43C3F3",
"h  c #4BC6F4",
"j  c #4FC8F5",
"k  c #56CAF5",
"l  c #5ACBF5",
"z  c #6FCAEC",
"x  c #76C6E4",
"c  c #77C8E6",
"v  c #76CCEC",
"b  c #63CEF5",
"n  c #73CFF1",
"m  c #6ED1F6",
"M  c #72D3F7",
"N  c #7BD5F7",
"B  c #7AD5F8",
"V  c #89BBCD",
"C  c #96BCCB",
"Z  c #9BBDC9",
"A  c #A4BEC8",
"S  c #8DC0D3",
"D  c #9BCCDE",
"F  c #A6C0CA",
"G  c #ABC1CA",
"H  c #B6C7CD",
"J  c #BBCACF",
"K  c #AAC8D4",
"L  c #B9CED5",
"P  c #87C9E1",
"I  c #82D7F7",
"U  c #8EDAF6",
"Y  c #80D7F8",
"T  c #87DAF8",
"R  c #89DAF8",
"E  c #97DCF6",
"W  c #94DDF9",
"Q  c #98DFF9",
"!  c #B5D5E0",
"~  c #BBD8E3",
"^  c #9BE0F9",
"/  c #A2E2FA",
"(  c #A9E4FA",
")  c #B0E1F3",
"_  c #BBE2F1",
"`  c #B2E7FB",
"'  c #B6E8FB",
"]  c #BEEBFB",
"[  c #C3CED2",
"{  c #CAD5D8",
"}  c #D6DBDC",
"|  c #D8DFE1",
" . c #C3E0EA",
".. c #CBE5EF",
"X. c #D4E1E6",
"o. c #DEE2E3",
"O. c #C6EDFB",
"+. c #CAEDFB",
"@. c #D9EAF0",
"#. c #D2F1FC",
"$. c #DCF4FD",
"%. c #E4E5E6",
"&. c #EEF0F1",
"*. c #E2F5FC",
"=. c #EDF9FE",
"-. c #F4F3F2",
";. c #F8F7F7",
":. c #F4FBFE",
">. c #FEFEFE",
",. c None",
/* pixels */
",.,.,.,.,.,.,.,.,.,.,.,.,.,.,.,.,.,.,.,.,.,.,.,.,.,.,.,.,.,.,.,.",
",.,.,.,.,.,.,.,.- - - ,.,.,.,.,.,.,.,.,.,.,.,.,.,.,.,.,.,.,.,.,.",
",.,.,.,.,.- ; 5 7 d 6 , - - - - - ; - ,.,.,.,.,.,.,.,.,.,.,.,.,.",
",.,.,.,.- 5 b R Q / Q N j g k b b k g 5 : ; ,.,.,.,.,.,.,.,.,.,.",
",.,.,.; 7 N Q Q W W W Q W U W Q Q Q U R m d : ; ,.,.,.,.,.,.,.,.",
",.,.- < M R T T T T T T T T T T T R T T T T b 5 ; ,.,.,.,.,.,.,.",
",.,.; j N N N N N B B B B B v c c v N B B B B m 7 ; ,.,.,.,.,.,.",
",.,., l M m m m m m m z y C A G G A C y z m m m m 7 ; ,.,.,.,.,.",
",.- < b b b b b b b t F } &.;.;.;.;.&.} F u b b b k < ; ,.,.,.,.",
",.- < k k k k k k r L ;.>.>.>.:.:.>.>.>.;.{ u k k k d ; ,.,.,.,.",
",.- > g h h h h f D ;.>.>.O.I b b R +.>.>.>.! p h h g , ; ,.,.,.",
",.,.: 7 g d d d i  .>.>.*.b d d d d j ' >.>._ a d d d d ; ,.,.,.",
",.,.; < 7 7 7 7 a ..>.>.@.s 6 7 d 6 6 d T ^ k 7 7 7 7 6 : ,.,.,.",
",.,.- : 5 5 5 5 3 _ >.>.;.K 0 o 2 2 5 5 5 5 5 5 5 5 5 5 : ; ,.,.",
",.,.- : , , , < , N :.>.>.>.o.[ F w 0 O 1 > , , , , > , : - ,.,.",
",.,.- : : : : : : , U :.>.>.>.>.>.-.%.{ C 8 & : : : : : : ; ,.,.",
",.,.- ; ; ; ; ; - - : j / #.:.>.>.>.>.>.;.o.q # ; ; ; ; ; - ,.,.",
",.,.- - - - - - - - - - ; 5 h M ( $.:.>.>.>.X.4 - - - - - - ,.,.",
",.,.- - - - - - - - . + - - - - : , b #.>.>.>.t # - - - - - ,.,.",
",.,.,.- - - - - + 9 Z e . - - - - - - n >.>.>.P # - - - - - ,.,.",
",.,.,.- - - - - % ~ >.-.S @ - - - - # x ;.>.>.c - - ; - - - ,.,.",
",.,.,.- - - - - $ ) >.>.&.V X @ $ . 8 X.>.>.=.f - - - - - - - ,.",
",.,.,.,.- - - - - j *.>.>.;.{ H G J %.>.>.>.E * - - - - - - - ,.",
",.,.,.,.- - - - - ; j O.:.>.>.>.>.>.>.>.=.W , ; - - - - - - ; ,.",
",.,.,.,.,.- - ; - - - , k Q ' ] O.O.` T d ; - - - - - - - - ,.,.",
",.,.,.,.,.,.- - - - - - - - : > < : : - - - - - - - - - - - ,.,.",
",.,.,.,.,.,.,.- - - - ; - - - - - - - - - ; - - - - - - - - ,.,.",
",.,.,.,.,.,.,.,.- - - - - - - - - - - - - - - ; - - - - - ,.,.,.",
",.,.,.,.,.,.,.,.,.,.- - - - - - - - - - - - - - - - - - ,.,.,.,.",
",.,.,.,.,.,.,.,.,.,.,.,.,.- - - - - - - - - - - - - - ,.,.,.,.,.",
",.,.,.,.,.,.,.,.,.,.,.,.,.,.,.,.,.,.,.,.,.- - ; ,.,.,.,.,.,.,.,.",
",.,.,.,.,.,.,.,.,.,.,.,.,.,.,.,.,.,.,.,.,.,.,.,.,.,.,.,.,.,.,.,."
};
