/* XPM */
static char *sublime_text_png[] = {
/* columns rows colors chars-per-pixel */
"32 32 156 2 ",
"   c black",
".  c gray12",
"X  c #272727",
"o  c #2D2D2D",
"O  c gray21",
"+  c #383838",
"@  c #57380E",
"#  c #5D3E14",
"$  c #623D0D",
"%  c #76430A",
"&  c #7B480E",
"*  c #614116",
"=  c #62451C",
"-  c #714B17",
";  c #674A22",
":  c #674E2B",
">  c #69563C",
",  c #715837",
"<  c #70593B",
"1  c #7D623E",
"2  c #414141",
"3  c #4D4C4C",
"4  c #514F4C",
"5  c #54514C",
"6  c #5C554C",
"7  c #545454",
"8  c #5A5A5A",
"9  c #645A4C",
"0  c #6B5E4C",
"q  c #615E5B",
"w  c #6E604C",
"e  c #73634C",
"r  c #79674C",
"t  c #7F694A",
"y  c #6C6050",
"u  c #69635B",
"i  c #73695B",
"p  c #7E705B",
"a  c #646464",
"s  c #686664",
"d  c #6C6964",
"f  c #6D6D6D",
"g  c #746D64",
"h  c #706F6E",
"j  c #7E7364",
"k  c #74726E",
"l  c #7C766E",
"z  c gray44",
"x  c #7A7979",
"c  c #88581C",
"v  c #915D1C",
"b  c #A05910",
"n  c #895F28",
"m  c #8D6125",
"M  c #986223",
"N  c #94682A",
"B  c #9F6929",
"V  c #976C30",
"C  c #C96E16",
"Z  c #CB7016",
"A  c #D47214",
"S  c #D97514",
"D  c #856D4C",
"F  c #8D724C",
"G  c #917247",
"H  c #93764C",
"J  c #83725B",
"K  c #8A7258",
"L  c #967A51",
"P  c #977B59",
"I  c #9C7E5C",
"U  c #817564",
"Y  c #8E7D64",
"T  c #827A6E",
"R  c #897E6E",
"E  c #807D78",
"W  c #F4861F",
"Q  c #FF8B1C",
"!  c #CD812B",
"~  c #CD8B38",
"^  c #FF9326",
"/  c #EC9C3D",
"(  c #FF9633",
")  c #FF9B31",
"_  c #FFA23B",
"`  c #9D805D",
"'  c #AA8A5F",
"]  c #8E816E",
"[  c #9D8464",
"{  c #94836B",
"}  c #9A886E",
"|  c #878178",
" . c #998974",
".. c #918778",
"X. c #A58E6E",
"o. c #B5936D",
"O. c #BF986E",
"+. c #A79277",
"@. c #AE9878",
"#. c #C18C4F",
"$. c #CC9446",
"%. c #FF9E40",
"&. c #FFA856",
"*. c #FFB555",
"=. c #FFB95C",
"-. c #DBB075",
";. c #E1A363",
":. c #FFBD61",
">. c #FBB26F",
",. c #FEBD6D",
"<. c #F9B576",
"1. c #FFBD7F",
"2. c #FFC079",
"3. c #838383",
"4. c #898683",
"5. c #8F8A83",
"6. c #8E8E8D",
"7. c #988F83",
"8. c #9A9185",
"9. c #94928E",
"0. c #9D978E",
"q. c gray58",
"w. c #999998",
"e. c #AF9D84",
"r. c #A49A8A",
"t. c #A29E98",
"y. c #B5A082",
"u. c #A7A198",
"i. c #ACA498",
"p. c #A3A3A2",
"a. c #AAA7A2",
"s. c #ADA9A5",
"d. c #AFAFAF",
"f. c #B0AAA0",
"g. c #B2B2B2",
"h. c #BBBBBB",
"j. c #D2AD80",
"k. c #DEAF80",
"l. c #D4B286",
"z. c #DDBB91",
"x. c #F4BE8B",
"c. c #FECC84",
"v. c #FAC28E",
"b. c #FFCE95",
"n. c #FDD5A3",
"m. c #FFDBA9",
"M. c #FBDDB5",
"N. c #C3C3C3",
"B. c #CACACA",
"V. c #D4D4D4",
"C. c #DDDDDD",
"Z. c #E5E5E5",
"A. c #EDEDED",
"S. c #F4F4F4",
"D. c #FDFDFD",
"F. c None",
/* pixels */
"F.F.F.F.F.F.F.F.F.F.F.F.F.F.F.F.F.F.F.F.F.F.F.F.F.F.F.F.F.F.F.F.",
"F.F.F.F.F.3 3 3 3 3 3 3 5 5 5 5 5 5 4 3 3 3 3 3 3 3 3 F.F.F.F.F.",
"F.F.F.F.3 6.p.a.p.p.a.s.s.s.s.s.s.s.s.s.p.p.p.p.a.p.6.3 F.F.F.F.",
"F.F.B.S.3 p.p.p.p.p.p.p.a.a.f.f.f.a.a.p.p.p.p.p.p.p.p.7 S.B.F.F.",
"F.F.S.A.7 w.w.w.w.t.t.u.i.r. .{  .r.u.t.w.w.w.w.w.w.w.7 A.S.F.F.",
"F.F.D.C.7 6.6.6.6.0.0.r.t m N V n - < 0.9.9.9.6.6.6.6.7 Z.D.F.F.",
"F.F.D.C.8 3.3.3.4.5.7.{ $.=.c.M.M.m.n.7.5.4.3.3.3.3.3.8 V.D.F.F.",
"F.F.D.B.8 x x x x | ..G =.=.-.@.@.y.e...| | x x x x x 8 B.D.F.F.",
"F.6.D.B.8 h h h k l ] l.*.*.; F [ X.} ] T l k k f f z 8 B.D.4.F.",
"F.w.D.h.7 a a a s g j +.n.,.~ c $ @ 1 Y U g d s a a a 7 h.D.w.F.",
"F.p.D.g.7 8 8 8 8 u i p [ z.n.b.,./ v = J i u q 8 8 8 7 g.D.a.F.",
"F.d.D.p.3 3 3 3 5 6 6 y r D L ' j.2._ ! , y 6 5 3 3 3 3 p.S.g.F.",
"F.h.D.q.3 3 3 3 5 6 9 w r D F H H #.) ) B e 9 5 3 3 3 3 w.D.g.F.",
"F.N.S.3.3 3 3 3 5 5 9 > : 1 H H H M ^ ^ ;.e 9 5 3 3 3 3 3.S.N.F.",
"F.B.S.x 3 3 3 3 5 6 9 % b & * = # Z Q %.o.y 6 5 3 3 3 3 x S.B.F.",
"F.V.D.f 3 3 3 3 5 6 y 1.( W A C S Q &.k.r 9 6 5 3 3 3 3 f S.V.F.",
"F.C.S.a 3 3 3 3 4 6 9 K -.x.>.<.>.v.O.r 0 6 5 4 3 3 3 3 a S.C.F.",
"F.C.S.8 3 3 3 3 3 6 6 0 e r I P ` r e 9 6 6 5 3 3 3 3 3 7 S.C.F.",
"F.Z.S.7 3 3 3 3 4 4 5 6 9 y 0 y y 9 9 6 5 5 4 3 3 3 3 3 4 S.Z.F.",
"F.Z.S.7 3 3 3 3 3 3 4 5 5 6 6 6 6 6 5 4 4 3 3 3 3 3 3 3 7 S.Z.F.",
"F.A.S.3.7 3 3 3 3 3 3 4 4 5 4 5 4 4 4 3 3 3 3 3 3 3 3 7 3.S.A.F.",
"F.S.S.h 6.q.q.q.q.q.q.q.q.q.q.q.q.q.q.q.q.q.q.q.q.q.q.6.a A.S.F.",
"F.S.A.7 8 7 2 + + + + + + + + + + + + + + + + + O + 2 3 3 Z.S.F.",
"F.D.A.8 2 + o X X X X X X X X X X X X X X X X X X X o O 7 S.D.F.",
"F.D.Z.B.4 o X . X . . . . . . . . . . X . . . X . . X 2 N.S.D.F.",
"F.D.S.Z.A.S.A.S.A.A.A.Z.Z.A.A.S.A.S.Z.A.S.A.S.A.S.A.Z.S.A.S.D.F.",
"F.V.D.D.D.D.D.D.D.D.D.D.D.D.D.D.D.D.D.D.D.D.D.D.D.D.D.D.D.D.V.F.",
"F.7 h.N.N.h.g.g.g.g.g.g.g.g.g.g.g.g.g.g.g.g.g.g.g.g.h.h.h.g.7 F.",
"F.F.                                                        F.F.",
"F.F.F.F.F.F.F.F.F.F.F.F.F.F.F.F.F.F.F.F.F.F.F.F.F.F.F.F.F.F.F.F.",
"F.F.F.F.F.F.F.F.F.F.F.F.F.F.F.F.F.F.F.F.F.F.F.F.F.F.F.F.F.F.F.F.",
"F.F.F.F.F.F.F.F.F.F.F.F.F.F.F.F.F.F.F.F.F.F.F.F.F.F.F.F.F.F.F.F."
};
