/* XPM */
static char *teamviewer_png[] = {
/* columns rows colors chars-per-pixel */
"32 32 256 2 ",
"   c #00061A",
".  c #00377A",
"X  c #004E7B",
"o  c #00517C",
"O  c #001E8B",
"+  c #0023A5",
"@  c #0025AB",
"#  c #0027B3",
"$  c #0028B7",
"%  c #002AB9",
"&  c #005284",
"*  c #00568C",
"=  c #005499",
"-  c #00689B",
";  c #005FA9",
":  c #005CBB",
">  c #1259BB",
",  c #0068AA",
"<  c #006AB0",
"1  c #0065BC",
"2  c #006BBF",
"3  c #336CBE",
"4  c #002CC5",
"5  c #002DCF",
"6  c #002FD6",
"7  c #0031D3",
"8  c #0031DE",
"9  c #0033E3",
"0  c #0035EB",
"q  c #0034F4",
"w  c #0038F1",
"e  c #0036FD",
"r  c #003BFD",
"t  c #004DC7",
"y  c #0051CF",
"u  c #005EC8",
"i  c #195FCA",
"p  c #0054D2",
"a  c #035AD3",
"s  c #005DD8",
"d  c #0061C1",
"f  c #006EC5",
"g  c #0667CF",
"h  c #0068CE",
"j  c #0876CA",
"k  c #1771C7",
"l  c #1974C6",
"z  c #1173CB",
"x  c #0062DD",
"c  c #006DDA",
"v  c #017CD2",
"b  c #0077DB",
"n  c #177DD7",
"m  c #147BDC",
"M  c #336CC0",
"N  c #2A78CC",
"B  c #357ECB",
"V  c #277AD5",
"C  c #2F7CD2",
"Z  c #3671D7",
"A  c #0044FE",
"S  c #004BFE",
"D  c #0051F5",
"F  c #005FF4",
"G  c #0056FD",
"H  c #005AFD",
"J  c #0066E4",
"K  c #0069E6",
"L  c #006AEC",
"P  c #0073E4",
"I  c #007EE0",
"U  c #0074EE",
"Y  c #007BE9",
"T  c #006DF3",
"R  c #0064FC",
"E  c #006DFC",
"W  c #0073F5",
"Q  c #007BF7",
"!  c #0075FB",
"~  c #007CFB",
"^  c #2E7EE2",
"/  c #4073C6",
"(  c #5677C9",
")  c #5A8DBA",
"_  c #6998BA",
"`  c #0D83CC",
"'  c #0481DD",
"]  c #0A9DDB",
"[  c #2981C1",
"{  c #3F9DC7",
"}  c #2D8BDA",
"|  c #3487D4",
" . c #3E9CDD",
".. c #1BABDE",
"X. c #2FA4DD",
"o. c #21AADB",
"O. c #0383E3",
"+. c #0C8BE0",
"@. c #0182EA",
"#. c #0089E9",
"$. c #0096E4",
"%. c #0093EC",
"&. c #009DEE",
"*. c #0999E8",
"=. c #1E94E1",
"-. c #1C95EF",
";. c #0084F5",
":. c #008CF5",
">. c #098AF3",
",. c #0082FA",
"<. c #008DF9",
"1. c #0093F6",
"2. c #019AF4",
"3. c #0096FB",
"4. c #009EF9",
"5. c #1F9DF3",
"6. c #348FE4",
"7. c #2197EC",
"8. c #2C9BE9",
"9. c #229EF1",
"0. c #2B9CF2",
"q. c #02A2E1",
"w. c #07A8E5",
"e. c #01A2EC",
"r. c #0AADEA",
"t. c #00B1EC",
"y. c #0CB3E9",
"u. c #1FB5E5",
"i. c #00A4F4",
"p. c #00ACF4",
"a. c #00A6F8",
"s. c #00ADF8",
"d. c #16AFF1",
"f. c #00B4F4",
"g. c #00BCF5",
"h. c #00B4F8",
"j. c #00BCF9",
"k. c #3EA3E7",
"l. c #39ADE1",
"z. c #38A1E9",
"x. c #4695D6",
"c. c #4A94DD",
"v. c #6B8CC0",
"b. c #6C8BC9",
"n. c #7F9BCC",
"m. c #7091DA",
"M. c #5EB0D0",
"N. c #59B9D9",
"B. c #65A6D1",
"V. c #77A2D0",
"C. c #75BBDA",
"Z. c #4E96E6",
"A. c #5996EE",
"S. c #46A7E7",
"D. c #42ABE6",
"F. c #48AAE5",
"G. c #47A3F1",
"H. c #44A8F1",
"J. c #70A9F0",
"K. c #70BCF2",
"L. c #15C5EF",
"P. c #00C3F5",
"I. c #0CC4F3",
"U. c #00C9F7",
"Y. c #00C4FA",
"T. c #01C9F9",
"R. c #10C5F2",
"E. c #00D2F6",
"W. c #00D7FA",
"Q. c #00D9FA",
"!. c #3FC5ED",
"~. c #00E0FD",
"^. c #00E9FF",
"/. c #7CC3DA",
"(. c #41CDF1",
"). c #6DC8E4",
"_. c #66C6E8",
"`. c #8194CE",
"'. c #8C9DCF",
"]. c #82ABC0",
"[. c #8EA0CF",
"{. c #93A7CD",
"}. c #8FB8CB",
"|. c #A6BAC7",
" X c #A9B3CC",
".X c #A5BACE",
"XX c #A1AFD6",
"oX c #A9B5DD",
"OX c #ACB8D8",
"+X c #B3BDD4",
"@X c #90B6E8",
"#X c #ABBCEC",
"$X c #8FC3D5",
"%X c #84C4DB",
"&X c #89C2DC",
"*X c #87CBDE",
"=X c #98C4DB",
"-X c #ACC0CC",
";X c #B3C1CB",
":X c #BAC5D4",
">X c #B6CAD2",
",X c #B6CFDD",
"<X c #B3D1DB",
"1X c #87DAEE",
"2X c #9ED6E8",
"3X c #8AC9F3",
"4X c #97CFF1",
"5X c #A3CAEC",
"6X c #BFCFE1",
"7X c #ADD4E4",
"8X c #B1D6EC",
"9X c #B3CBF2",
"0X c #C9CBCF",
"qX c #C1C5D4",
"wX c #C3CFD5",
"eX c #CBCFD3",
"rX c #C6CADA",
"tX c #C9D4D5",
"yX c #C4D3DD",
"uX c #CDD8DB",
"iX c #D5D5D4",
"pX c #D0D4DA",
"aX c #D6D9DA",
"sX c #DCDCDC",
"dX c #E0DFDF",
"fX c #E2E0DF",
"gX c #CED1E2",
"hX c #C7D2EC",
"jX c #D4D6E6",
"kX c #D2DCE3",
"lX c #DDDDE3",
"zX c #D8DFEE",
"xX c #CBD7F2",
"cX c #D3DCF3",
"vX c #DEE2E3",
"bX c #D2E1E8",
"nX c #C2E1F3",
"mX c #CFE7F4",
"MX c #E4E4E4",
"NX c #E9E7E6",
"BX c #E8E8E7",
"VX c #E2E4EA",
"CX c #E0EBEE",
"ZX c #ECEBEB",
"AX c #F0EFED",
"SX c #E5EAF5",
"DX c #E9ECF4",
"FX c #ECEFF8",
"GX c #EDF2F7",
"HX c #E8F3F8",
"JX c #F4F4F3",
"KX c #F8F7F7",
"LX c #F9F8F7",
"PX c #F5F4F9",
"IX c #F9F8F8",
"UX c None",
/* pixels */
"UXUXUXUXUXUXUXUXUXUXUXUXUXUXUXUXUXUXUXUXUXUXUXUXUXUXUXUXUXUXUXUX",
"UXUXUXp.p.f.s.a.<.,.! E R G S A UXUXUXUXUXUXUXUXUXUXUXUXUXUXUXUX",
"UXUXUXe.&.e.i.p.f.p.p.i.3.<.~ ! E H S A r e q 0 UXUXUXUXUXUXUXUX",
"UXUXUXi.e.p.p.p.f.f.f.g.g.g.P.g.f.s.i.1.Q E F D D ~ Y.UXUXUXUXUX",
"UXUXUXp.p.p.f.f.g.f.r...o...y.g.P.P.P.g.p.2.:.:.3.~.^.Y.UXUXUXUX",
"UXUXUXf.f.f.g.g.w.{ ].|.;X-X}.M.u.P.U.g.h.i.2.:.:.3.! G UXUXUXUX",
"UXUXUXf.f.g.g.] _ 0XNXZXAXAXZXvX>XN.I.U.P.h.i.2.1.E A S UXUXUXUX",
"UXUXUXg.g.P.q.) aXAXAXJXAXJXAXAXAXsX/.L.Y.j.s.i.2.! S S UXUXUXUX",
"UXUXUXP.P.g.N qXAXJXAXJXJXJXJXJXJXJXBX*XR.Y.h.s.i.! A A UXUXUXUX",
"UXUXUXP.U.q.v.ZXAXAXJXJXJXJXJXJXJXJXJXBX).P.j.h.s.! A A UXUXUXUX",
"UXUXUXU.U.` OXJXJXJXJXKXJXJXPXPXJXJXJXJXbX!.Y.j.s.~ A A UXUXUXUX",
"UXUXUXU.U.l jXJXJXKXKXCXDXKXKXKXKXPXKXKXJX2XI.P.h.~ r r UXUXUXUX",
"UXUXUXU.P.N VXJXJXmX3XZ.xXIXIXFX9XSXKXKXKXCX(.Y.j.~ r r UXUXUXUX",
"UXUXUXU.P.C zXnXK.0.:.^ cXFXPXHXH.A.cXKXPXPX1XT.j.! r r UXUXUXUX",
"UXUXUXU.P.N 5X0.:.1.&.*.9.G.J.@XF.@.Z oXZXAX7Xd.a.! e q UXUXUXUX",
"UXUXUXU.E.n hX4X5.2.i.&.%.%.@.I I #.b i `.lXyX8.:.W w w UXUXUXUX",
"UXUXUXg.Q.+.#XKX8X6.K g } =.*.&.e.&.*.@.a ( +XS.;.T 0 9 UXUXUXUX",
"UXUXUXf.W.e.m.AXZX6Xc.> {.,X=XC.l.i.&.%.+.M  XF.;.L 9 8 UXUXUXUX",
"UXUXUXs.U.t.M gXZXZXkXV.XXZXBXMX_.r.X.B..XpXaXS.;.J 6 6 UXUXUXUX",
"UXUXUXUXp.p.j [.ZXBXBXBXMXBXBXvX%X$XwXsXMXMXuXz.;.J 7 5 UXUXUXUX",
"UXUXUXUX4.i.$.M gXBXBXBXBXBXMXMXMXfXNXMXdXfX<X7.Q x 4 5 UXUXUXUX",
"UXUXUXUX2.2.i.v b.MXBXBXBXMXMXMXMXMXfXdXsXsX&X>.Q x 4 % UXUXUXUX",
"UXUXUXUX2.1.2.2.z '.MXMXMXMXMXMXfXMXsXsXsXtXD.Q W s % % UXUXUXUX",
"UXUXUXUX:.:.:.1.%.k [.lXMXMXfXfXsXsXsXaXiX%X>.W W a % % UXUXUXUX",
"UXUXUXUX<.:.:.:.:.%.z b.rXMXsXsXsXiXiXiX$X-.W W W a $ $ UXUXUXUX",
"UXUXUXUXv Y ,.,.;.;.1.' B n.:XeXeXeX>XC.-.W W T T p $ # UXUXUXUX",
"UXUXUXUXUXo < f b ;.Q ,.;.O.n | x.x.7.;.W W T T L p $ @ UXUXUXUX",
"UXUXUXUXUXUXUXUXUX* , v Y P ,.,.,.Q ! W T T L L K p % +   UXUXUX",
"UXUXUXUXUXUXUXUXUXUXUXUXUX- 2 h P ! T T T L J J K y % O UXUXUXUX",
"UXUXUXUXUXUXUXUXUXUXUXUXUXUXUXUX& = 1 c x J J J K t O UXUXUXUXUX",
"UXUXUXUXUXUXUXUXUXUXUXUXUXUXUXUXUXUXUXUXo ; : d d . UXUXUXUXUXUX",
"UXUXUXUXUXUXUXUXUXUXUXUXUXUXUXUXUXUXUXUXUXUXUXUXUXUXUXUXUXUXUXUX"
};
