/* XPM */
static char *utils_png[] = {
/* columns rows colors chars-per-pixel */
"32 32 38 1 ",
"  c #010101",
". c #020202",
"X c #030303",
"o c #040404",
"O c #050505",
"+ c #050606",
"@ c #060606",
"# c #070707",
"$ c #080808",
"% c #090909",
"& c #0A0A0A",
"* c #0B0B0B",
"= c #0C0C0C",
"- c #0D0D0D",
"; c #0E0E0E",
": c #0E0F0E",
"> c #0E0F0F",
", c #0F0F0F",
"< c #101010",
"1 c #111111",
"2 c #121212",
"3 c #131313",
"4 c #141414",
"5 c #151515",
"6 c #151616",
"7 c #161616",
"8 c #171717",
"9 c #181818",
"0 c #191919",
"q c #1A1A1A",
"w c #1A1B1A",
"e c #1B1B1B",
"r c #1C1C1C",
"t c #1D1D1D",
"y c #1E1E1E",
"u c #1F1F1F",
"i c #202020",
"p c None",
/* pixels */
"p pppppppppppppppppppp     ppppp",
"    ppppppppppppppppp  O  pppppp",
"p O  ppppppppppppppO   OOppppppp",
"pOOOOOpppppppppppppOOOOOpppppppp",
"ppOOOOOpppppppppppOOOOOppppppppp",
"pppOOOOpppppppppppOO$OOppppppppO",
"ppppOO$OppppppppppOOOO$pppppppOO",
"pppppp$$Oppppppppp$$$$$OpppppO$$",
"pppppppp$$pppppppp$$$$$$$ppp$$$$",
"ppppppppp=$ppppppp$$$-$$-$-$$$-p",
"pppppppppp=$pppppp$--=$-$-$$--$p",
"ppppppppppp--ppp-p--$---------pp",
"pppppppppppp--$---p----------ppp",
"ppppppppppppp-1-1--p--1--1--pppp",
"ppppppppppppp11-111p11pppppppppp",
"pppppppppppp1111111-pppppppppppp",
"ppppppppppp1114111111ppppppppppp",
"pppppppppp1p4141141441pppppppppp",
"ppppppppp144pp4444444441pppppppp",
"pppppppp44444pp4944494444ppppppp",
"ppppppp49949494p4949494994pppppp",
"pppppp499449999pp8994989494ppppp",
"ppppp999999999pppp9999999999pppp",
"pppp9r99r9r99ppppp99r99r9r999ppp",
"ppp9r9re9r99ppppppp9r9rrr99r99pp",
"pp9rrrrrrrrppppppppperrrrrrrrr9p",
"prrrrrrrrrppppppppppprrrrrrrrrrr",
"rrrprrrrrppppppppppppprrrrrirrrp",
"rrppprirppppppppppppppprrririrpp",
"iirpriipppppppppppppppppiiiiippp",
"piiriipppppppppppppppppppiiipppp",
"ppiiipppppppppppppppppppppippppp"
};
