/* XPM */
static char *vmware_workstation_png[] = {
/* columns rows colors chars-per-pixel */
"32 32 191 2 ",
"   c #6E3E17",
".  c #613C1D",
"X  c #7C4418",
"o  c #3A527C",
"O  c #685756",
"+  c #605B64",
"@  c #67636D",
"#  c #8C450B",
"$  c #8D4C16",
"%  c #954F17",
"&  c #965017",
"*  c #A14600",
"=  c #A44C03",
"-  c #AE4C00",
";  c #AA540D",
":  c #AD5916",
">  c #B8661F",
",  c #A9632A",
"<  c #BA6A26",
"1  c #B76D30",
"2  c #B67037",
"3  c #BF7131",
"4  c #BD783F",
"5  c #DD7007",
"6  c #DE720B",
"7  c #DF7814",
"8  c #E0750F",
"9  c #E27914",
"0  c #E37D1B",
"q  c #C07536",
"w  c #CC7C35",
"e  c #C47B3F",
"r  c #CE7F3A",
"t  c #E27F20",
"y  c #AF7445",
"u  c #BE7A40",
"i  c #BB7C49",
"p  c #A97955",
"a  c #AA7D5A",
"s  c #C27D44",
"d  c #C9803F",
"f  c #D58234",
"g  c #DD8737",
"h  c #DE8837",
"j  c #D0823D",
"k  c #DE8939",
"l  c #E68223",
"z  c #E98525",
"x  c #E2862E",
"c  c #E98729",
"v  c #E78A2F",
"b  c #EB892B",
"n  c #EC8D32",
"m  c #E08B3B",
"M  c #EC933D",
"N  c #B38B6D",
"B  c #BC8D6A",
"V  c #C58148",
"C  c #D18541",
"Z  c #D38845",
"A  c #D58B49",
"S  c #C38653",
"D  c #C68957",
"F  c #CF8D54",
"G  c #C68A59",
"H  c #D5945C",
"J  c #E28F41",
"K  c #ED9743",
"L  c #EE9846",
"P  c #E0934D",
"I  c #EF9A48",
"U  c #F19D4C",
"Y  c #F1A357",
"T  c #F1A55C",
"R  c #CC9466",
"E  c #D99B66",
"W  c #D99E6A",
"Q  c #DBA16E",
"!  c #DCA472",
"~  c #F3AF6D",
"^  c #E0A877",
"/  c #E3AC7B",
"(  c #F5B475",
")  c #F5B779",
"_  c #F7B97C",
"`  c #F8BA7E",
"'  c #264D87",
"]  c #224C88",
"[  c #29548F",
"{  c #2C5691",
"}  c #2D5893",
"|  c #325E98",
" . c #3B649C",
".. c #3C69A1",
"X. c #4E6082",
"o. c #436798",
"O. c #42699F",
"+. c #4E6F9A",
"@. c #56749F",
"#. c #767580",
"$. c #446EA5",
"%. c #4370A7",
"&. c #4673AB",
"*. c #4C75AA",
"=. c #4C78AE",
"-. c #557AAB",
";. c #597EAE",
":. c #537EB2",
">. c #597FB1",
",. c #5B80AF",
"<. c #5C82B1",
"1. c #5988BC",
"2. c #6486B3",
"3. c #6788B3",
"4. c #6889B4",
"5. c #6E90BC",
"6. c #7C98BD",
"7. c #7697C1",
"8. c #7798C1",
"9. c #7899C2",
"0. c #76A1D0",
"q. c #7BA5D2",
"w. c #7EA8D4",
"e. c #7FAAD8",
"r. c #938987",
"t. c #929199",
"y. c #98979D",
"u. c #9C999D",
"i. c #B89781",
"p. c #A19694",
"a. c #A89A94",
"s. c #B29E93",
"d. c #BBA393",
"f. c #B5A298",
"g. c #BBA69A",
"h. c #BDA99C",
"j. c #969FAE",
"k. c #94A5BA",
"l. c #B4B0B1",
"z. c #BBB6B8",
"x. c #EAB482",
"c. c #F6BC83",
"v. c #FABD83",
"b. c #F4BE8A",
"n. c #F8BF89",
"m. c #FCC087",
"M. c #F7C08B",
"N. c #FCC38C",
"B. c #FBC593",
"V. c #FBC896",
"C. c #FECC9A",
"Z. c #8AA3C5",
"A. c #85A7CD",
"S. c #8FA8C8",
"D. c #92A9C5",
"F. c #9AAEC6",
"G. c #9DB0C6",
"H. c #84ACD6",
"J. c #89AED6",
"K. c #87AED8",
"L. c #88AED8",
"P. c #8DB0D6",
"I. c #87B0DA",
"U. c #8DB2D9",
"Y. c #94B4D7",
"T. c #93B5DA",
"R. c #97B8DC",
"E. c #A5B5C8",
"W. c #A1B7D4",
"Q. c #A0BEDE",
"!. c #BAC3CF",
"~. c #ACC2DC",
"^. c #BCC5D1",
"/. c #B1C6DF",
"(. c #A7C5E6",
"). c #A8C4E2",
"_. c #AFC8E4",
"`. c #B2C7E0",
"'. c #B3CBE4",
"]. c #BACDE3",
"[. c #B5CEEA",
"{. c #BAD0E7",
"}. c #B6D0EB",
"|. c #BCD2EA",
" X c #C8CCD4",
".X c #C3CDDA",
"XX c #C0D1E4",
"oX c #C2D6EB",
"OX c #C6D8EB",
"+X c #C9DBED",
"@X c None",
/* pixels */
"@X@X@X@X@X@X@X@X{  ..................................... .[ @X@X",
"@X@X@X@X@X@X@X}  .$.*.*.*.*.*.*.*.*.*.*.*.*.*.*.*.*.*.,.1.=.{ @X",
"@X@X@X@X@X@Xo.Z.].].XX|.XXXXXXXXXXXXXXXXXXXXXX|.XXXX].W.2.1.%.@X",
"@X@X@X@X@X@XS.+XOXOXOXOXOXOXOXXXXXOXOXOXXXOXOXOXOXOXOX+X~.<.=.@X",
"@X@X@X@X@XX.].oXoXoXoX|.oXoXoXoXoXoXoXoXoXoXoX|.oXoXoXoXOX4.&.@X",
"@X@X@X* - O !. X X X X X X X X X X X X X X X XOXoXoX|.XX+X4.&.@X",
"@X@X; 3 s i D D D D D G D D D D D D D D D D B s..X|.|.|.OX4.&.@X",
"@X: W B.C.C.C.C.C.C.C.C.C.C.C.C.C.C.C.C.C.C.V.! i.XX|.|.OX4.&.@X",
"@XF V.N.N.m.m.m.m.m.N.m.m.m.m.m.m.m.m.N.m.m.N.V.R z.|.}.OX4.&.@X",
"@XQ B.n.v.v.m.N.N.N.N.N.B.N.N.B.N.N.m.m.m.m.m.B.Q h.|.{.OX4.&.@X",
"@XQ N.v.n.v.B.b.^ Q ! Q Q Q ! ! ! / b.N.v.v.v.N.Q h.|.'.oX3.&.@X",
"@XQ N.` c.M.! B d.s.@ + @X@X@X@X@X@Xs / N.` ` m.Q g.|.[.oX3.&.@X",
"@XW v.` n./ N ^.|.].&...@X@X@X@X@X@X@X1 x.n.` n.Q g.|.'.|.3.&.@X",
"@XQ n._ n.E l.[.'.`.*...@X@X@X@X@X@X@X@XH n.) n.W g.}.'.|.3.&.@X",
"@XW v.( M.S !.'.'.`.*...@X@X@X@X@X@X@X@Xs M.( c.W g.[._.{.3.&.@X",
"@XW ` ( n.S ^.'.'.`.*...@X@X@X@X@X@X@X@Xs n.( c.W g.[.`.}.3.&.@X",
"@XE ` ( c.S !._._.`.*...@X@X@X@X@X@X@X@Xs c.~ ( E f.(.Q._.2.%.@X",
"@XE ) ~ c.S !.).).~.=.&.@X@X@X@X@X@X@X@X3 T M U A a.U.H.R.,.&.@X",
"@XH Y I T i E.L.L.Y.;.1. .@X@X@X@X@X@X@X3 I b K V u.J.H.R.<.&.@X",
"@XZ n z L 4 F.H.H.P.7.:.1.&.| } } } } o 2 U M P p D.H.H.T.,.&.@X",
"@XZ n z K u F.w.q.H.L.5.:.:.&.&.*.&.&.+., A V p j.L.w.q.U.<.&.@X",
"@XZ b l M 4 F.q.q.q.H.L.A.8.8.8.9.9.7.6.p.p.y.S.H.q.q.q.U.;.%.@X",
"@XC z 0 M 4 k.q.0.q.0.0.q.H.H.H.H.H.w.H.w.e.e.q.q.0.0.q.P.-.| @X",
"@XC z 0 v j r.H.0.0.0.0.0.0.0.0.0.0.0.0.0.0.0.0.0.0.0.H.A.O.] @X",
"@Xj l 9 0 J y t.A.L.L.L.L.L.L.H.H.I.L.L.L.H.I.I.L.L.L.A.-.' @X@X",
"@Xj l 9 9 l k 4 p a a a a a a a a a a a a a a a p #.@.o.@X@X@X@X",
"@Xj 0 8 7 7 0 x m m m m m m m m m m m m m m m J w = X @X@X@X@X@X",
"@Xw t 5 5 6 6 6 6 6 6 5 5 8 5 8 8 8 5 8 8 5 5 0 r =   @X@X@X@X@X",
"@X< h 9 5 5 5 5 5 5 5 5 5 5 5 5 5 5 5 5 5 5 7 k > # @X@X@X@X@X@X",
"@X@X< f g g k k k k k k k k k k g g g g k k f < # @X@X@X@X@X@X@X",
"@X@X@X$ & & & & & & & & & & & & & & & & & & $ . @X@X@X@X@X@X@X@X",
"@X@X@X@X@X@X@X@X@X@X@X@X@X@X@X@X@X@X@X@X@X@X@X@X@X@X@X@X@X@X@X@X"
};
